<?xml version="1.0" standalone="no"?>
<!DOCTYPE svg PUBLIC "-//W3C//DTD SVG 20010904//EN"
 "http://www.w3.org/TR/2001/REC-SVG-20010904/DTD/svg10.dtd">
<svg version="1.0" xmlns="http://www.w3.org/2000/svg"
 width="700.000000pt" height="700.000000pt" viewBox="0 0 700.000000 700.000000"
 preserveAspectRatio="xMidYMid meet">
<metadata>
Created by potrace 1.14, written by Peter Selinger 2001-2017
</metadata>
<g transform="translate(0.000000,700.000000) scale(0.100000,-0.100000)"
fill="#000000" stroke="none">
<path d="M4417 6224 c-1 -1 -22 -5 -47 -8 -137 -18 -342 -46 -367 -50 -34 -6
-324 -46 -373 -52 -33 -4 -80 -10 -140 -19 -14 -3 -45 -7 -69 -10 -23 -3 -55
-7 -70 -9 -14 -3 -46 -8 -71 -11 -25 -3 -72 -10 -105 -15 -33 -5 -85 -12 -115
-15 -30 -3 -62 -8 -70 -10 -8 -2 -38 -7 -66 -10 -28 -3 -59 -7 -70 -9 -11 -2
-47 -7 -79 -11 -33 -4 -68 -9 -79 -11 -10 -2 -44 -6 -75 -10 -31 -3 -65 -8
-76 -10 -11 -3 -40 -7 -65 -9 -25 -3 -56 -8 -70 -10 -14 -3 -45 -7 -70 -10
-25 -3 -88 -12 -140 -20 -108 -16 -160 -23 -210 -29 -88 -11 -137 -18 -160
-22 -14 -2 -61 -9 -105 -14 -44 -6 -96 -13 -115 -16 -19 -3 -46 -7 -60 -9 -14
-3 -45 -7 -70 -10 -25 -3 -79 -10 -120 -16 -41 -6 -86 -12 -100 -14 -22 -3
-66 -9 -140 -20 -79 -12 -386 -54 -445 -61 -217 -27 -371 -179 -436 -429 -30
-119 -32 -347 -4 -505 35 -197 91 -330 181 -430 22 -25 31 -41 24 -45 -7 -4
-55 -20 -108 -35 -174 -51 -194 -58 -208 -77 -21 -28 -17 -68 12 -102 24 -29
137 -91 166 -91 21 0 85 -57 116 -103 64 -95 93 -223 92 -407 -1 -139 -5 -198
-14 -207 -3 -4 -57 -22 -118 -40 -208 -63 -342 -126 -372 -175 -16 -26 11 -47
80 -65 33 -8 71 -18 86 -21 l28 -7 -33 -35 c-75 -82 -128 -197 -151 -331 -26
-145 -12 -403 32 -579 52 -208 193 -384 342 -428 48 -14 581 -186 875 -282
132 -43 395 -129 585 -190 190 -62 383 -125 430 -140 47 -15 213 -70 369 -120
l284 -93 136 34 c75 18 141 34 146 35 6 1 60 14 120 29 61 15 115 28 120 29 6
2 21 6 35 9 14 4 117 29 230 56 299 73 474 115 665 161 94 23 177 43 185 45
30 7 278 67 415 100 403 97 508 123 830 201 193 47 436 106 540 131 319 76
407 100 423 116 24 24 -4 57 -85 99 -69 37 -259 107 -346 129 -26 6 -50 17
-54 23 -23 36 -22 318 2 421 38 173 98 254 226 305 105 43 163 94 156 140 -9
53 -10 53 -175 106 -9 3 0 16 25 36 87 73 159 188 204 333 7 22 14 45 15 50 1
6 6 35 12 65 20 102 24 135 27 261 5 223 -39 398 -129 519 l-26 34 171 43
c215 53 231 64 167 119 -55 46 -258 129 -425 173 -29 8 -43 17 -44 29 0 9 -3
26 -5 37 -3 11 -5 77 -5 146 -1 239 44 386 145 474 28 25 55 45 61 45 6 0 42
15 81 34 77 37 114 74 114 115 -1 52 -24 64 -275 140 -132 40 -253 77 -270 81
-16 4 -106 31 -200 60 -93 28 -208 63 -255 76 -47 14 -143 43 -214 65 -70 23
-136 42 -145 44 -9 2 -77 23 -151 45 -74 23 -148 46 -165 50 -16 4 -187 56
-380 114 -294 89 -401 115 -418 100z m-3393 -925 c188 -61 463 -151 611 -199
149 -49 349 -114 445 -145 96 -32 220 -72 275 -90 55 -18 249 -81 430 -139
182 -59 344 -113 361 -120 31 -14 31 -14 28 -88 -3 -92 -13 -384 -20 -593 -2
-87 -7 -161 -9 -163 -3 -3 -124 28 -280 74 -108 31 -481 135 -495 139 -9 1
-119 32 -245 68 -127 35 -322 90 -435 122 -113 32 -218 61 -235 65 -72 18
-625 175 -692 196 -24 8 -56 16 -72 19 -51 9 -75 21 -116 62 -89 86 -135 240
-140 470 -5 278 69 433 209 433 23 0 181 -46 380 -111z m5402 -96 c-23 -46
-55 -161 -63 -226 -10 -81 -9 -305 1 -388 l8 -65 -84 -22 c-77 -20 -1965 -490
-1998 -497 -8 -2 -224 -56 -480 -120 -256 -65 -478 -118 -495 -119 -29 -1 -30
1 -29 39 1 22 5 123 8 225 15 477 18 555 21 559 4 3 145 34 215 46 22 4 70 14
150 31 14 2 32 7 40 9 8 2 31 7 50 10 19 3 98 19 175 35 77 16 307 63 510 105
204 41 422 86 485 99 111 24 354 74 395 82 11 2 31 6 45 9 14 3 34 7 45 9 11
2 121 25 245 51 124 25 236 48 250 51 14 2 54 11 90 19 36 8 79 16 95 19 17 3
91 19 165 35 179 38 174 38 156 4z m23 -1136 c82 -54 122 -200 116 -417 -9
-291 -100 -487 -240 -514 -11 -2 -328 -91 -705 -196 -377 -106 -714 -201 -750
-211 -155 -42 -677 -189 -882 -247 l-138 -39 -1 51 c0 28 -2 92 -4 141 -4 119
-17 536 -19 600 l-1 50 110 36 c300 99 522 171 535 174 8 2 40 12 70 23 30 11
197 66 370 122 173 56 333 108 355 115 22 8 256 84 520 170 264 86 491 160
505 165 43 16 116 5 159 -23z m-5783 -167 c55 -11 110 -23 124 -25 14 -3 36
-7 50 -11 14 -3 45 -10 70 -14 25 -5 146 -30 270 -55 124 -26 232 -48 240 -50
8 -2 62 -13 120 -25 58 -12 114 -24 125 -26 34 -6 106 -21 210 -42 55 -12 111
-23 125 -26 14 -2 48 -9 75 -15 61 -13 360 -75 630 -130 110 -23 214 -44 230
-47 17 -2 37 -7 45 -9 8 -2 29 -7 45 -9 17 -3 84 -17 150 -31 105 -22 432 -90
488 -101 11 -2 21 -5 22 -6 3 -3 12 -242 21 -573 3 -115 7 -220 9 -232 4 -26
-9 -29 -69 -12 -21 6 -46 12 -55 14 -9 2 -36 8 -61 14 -25 7 -54 14 -65 16
-11 3 -83 21 -160 40 -77 20 -149 38 -160 40 -23 5 -208 51 -1105 275 -355 89
-652 163 -660 165 -8 2 -136 33 -285 70 -148 36 -277 68 -285 70 -59 13 -173
44 -177 49 -3 3 -1 38 4 78 11 75 10 336 -2 398 -10 54 -36 140 -56 188 -10
23 -17 42 -15 42 2 0 48 -9 102 -20z m183 -1236 c212 -69 418 -136 456 -149
39 -13 252 -82 475 -155 223 -72 500 -163 615 -200 116 -38 289 -95 385 -126
96 -31 177 -58 179 -60 5 -5 5 -52 -2 -234 -4 -91 -10 -262 -13 -380 -3 -118
-8 -217 -10 -219 -4 -4 -137 29 -224 56 -25 7 -135 38 -245 69 -110 30 -351
97 -535 149 -184 51 -537 150 -785 219 -247 69 -470 132 -495 140 -25 7 -88
24 -140 37 -90 23 -98 27 -150 79 -54 54 -99 142 -114 225 -3 17 -9 55 -14 85
-15 82 -7 335 11 399 33 114 110 191 190 191 17 0 204 -57 416 -126z m5357
-107 c-48 -109 -61 -189 -61 -382 0 -99 4 -201 8 -227 l7 -47 -37 -10 c-39
-11 -1633 -408 -1668 -417 -11 -2 -29 -6 -40 -8 -11 -2 -103 -25 -205 -51
-102 -26 -192 -48 -200 -50 -8 -2 -215 -53 -460 -114 -245 -61 -453 -113 -462
-115 -15 -3 -16 6 -13 88 2 50 6 183 10 296 10 328 15 443 18 446 2 2 72 17
157 35 85 17 162 32 170 34 151 34 332 65 355 61 17 -4 41 -8 54 -11 23 -4
140 30 315 91 38 14 84 27 104 30 19 3 42 7 51 9 28 6 213 45 235 49 94 19
484 99 689 141 10 2 26 6 35 9 9 3 33 7 52 10 19 3 109 21 200 41 91 19 179
38 195 41 17 3 116 23 222 44 105 22 203 41 218 44 15 3 29 7 31 8 2 2 12 4
23 5 19 2 19 0 -3 -50z"/>
</g>
</svg>
